<?xml version="1.0" encoding="UTF-8" standalone="no"?>
<svg
   width="3405"
   height="3519.9951"
   viewBox="0 0 3405 3519.9951"
   version="1.1"
   id="svg2"
   xmlns="http://www.w3.org/2000/svg"
   xmlns:svg="http://www.w3.org/2000/svg">
  <defs
     id="defs2" />
  <path
     d="m 1177.067,1.1769932 c -161.938,0.467 -294.66,1.078 -294.938,1.356 -0.463,0.463 -2.917,407.3340068 -3.065,508.2120068 L 879,553.995 h 233.021 233.022 l 0.972,2.25 c 0.535,1.237 43.074,134.001 94.53,295.031 l 93.558,292.781 -767.052,1187.516 C 345.173,2984.707 0,3519.293 0,3519.542 c 0,0.249 409.725,0.453 910.5,0.453 H 1821 v -273.5 -273.5 h -380.583 c -209.321,0 -380.434,-0.369 -380.25,-0.82 0.764,-1.883 761.383,-1120.132 761.914,-1120.155 0.319,-0.014 149.648,374.262 331.841,831.725 182.192,457.463 331.659,832.168 332.148,832.68 0.854,0.893 600.443,-0.631 821.18,-2.087 l 97.75,-0.645 v -269.349 -269.349 h -232.409 -232.41 l -33.365,-83.75 c -18.351,-46.062 -285.129,-715.436 -592.841,-1487.497 L 1754.5,-6.8310818e-6 1613,0.16299317 c -77.825,0.09 -273.995,0.546 -435.933,1.01400003"
     stroke="none"
     fill="#fbfbfb"
     fill-rule="evenodd"
     id="path1" />
</svg>
