<?xml version="1.0" encoding="UTF-8" standalone="no"?>
<svg
   width="3404.7129"
   height="3518.8467"
   viewBox="0 0 3404.7129 3518.8467"
   version="1.1"
   id="svg2"
   xmlns="http://www.w3.org/2000/svg"
   xmlns:svg="http://www.w3.org/2000/svg">
  <defs
     id="defs2" />
  <path
     d="M 1224.213,0.84048424 C 1036.113,1.3444842 881.98801,1.9804842 881.71301,2.2524842 c -0.489,0.484 -2.743,383.5349958 -2.914,495.0769958 l -0.086,56.248 233.22599,0.252 233.226,0.252 94.254,294.814 94.253,294.81302 L 766.83601,2330.8955 1.3885631e-5,3518.0815 279.10701,3518.5815 c 153.508,0.275 563.169,0.348 910.35799,0.163 l 631.252,-0.337 -0.252,-272.663 -0.252,-272.663 -380.637,-0.5 -380.638,-0.5 381.138,-560.649 c 209.625,-308.358 381.42,-560.358 381.766,-560 0.346,0.357 149.71,375.049 331.921,832.649 182.211,457.6 331.419,832.165 331.572,832.367 0.154,0.203 197.964,-0.368 439.579,-1.267 241.614,-0.899 448.412,-1.627 459.549,-1.618 l 20.25,0.018 v -269.498 -269.498 l -232.739,-0.252 -232.739,-0.252 -592.661,-1487 -592.66,-1487.00001576 -93.851,-0.078 c -51.617,-0.044 -247.75,0.333 -435.85,0.837"
     stroke="none"
     fill="#040404"
     fill-rule="evenodd"
     id="path1" />
</svg>
